<svg width="199" height="178" viewBox="0 0 199 178" fill="none" xmlns="http://www.w3.org/2000/svg">
<path d="M199 7.12C199 5.23166 198.251 3.42066 196.918 2.0854C195.585 0.75014 193.778 0 191.893 0C152.731 0 112.548 44.2419 90.2307 73.5407C82.2604 71.0954 73.8287 70.5567 65.6129 71.9679C57.3971 73.3791 49.6262 76.7008 42.9243 81.6663C36.2224 86.6317 30.7763 93.1025 27.0235 100.559C23.2708 108.015 21.3159 116.249 21.3159 124.6C21.3159 152.083 3.95618 164.41 3.12995 164.979C1.86918 165.832 0.914845 167.068 0.40727 168.504C-0.100306 169.941 -0.134334 171.503 0.310189 172.96C0.754713 174.418 1.65433 175.694 2.87675 176.601C4.09918 177.508 5.5799 177.999 7.10119 178H74.6211C82.9568 178 91.1764 176.042 98.6195 172.282C106.063 168.523 112.522 163.067 117.479 156.353C122.435 149.639 125.751 141.855 127.16 133.624C128.569 125.394 128.031 116.947 125.59 108.963C154.846 86.6059 199 46.3512 199 7.12ZM74.6211 163.76H23.6525C29.6493 155.225 35.5306 142.329 35.5306 124.6C35.5306 116.855 37.8233 109.284 42.1186 102.844C46.4139 96.404 52.519 91.3848 59.6619 88.4209C66.8047 85.457 74.6645 84.6815 82.2473 86.1925C89.8301 87.7034 96.7954 91.4331 102.262 96.9097C107.729 102.386 111.452 109.364 112.961 116.96C114.469 124.557 113.695 132.43 110.736 139.586C107.777 146.741 102.767 152.857 96.3387 157.16C89.9103 161.463 82.3525 163.76 74.6211 163.76ZM103.424 79.6995C106.468 75.7479 109.456 72.0247 112.388 68.53C119.564 73.3868 125.743 79.5773 130.592 86.7661C127.097 89.6972 123.381 92.6905 119.442 95.7462C115.3 89.3188 109.84 83.8485 103.424 79.6995ZM141.359 77.3143C135.994 69.7297 129.385 63.1096 121.814 57.7343C150.048 27.0026 171.343 17.6843 183.915 15.0944C181.383 27.6968 172.036 49.0301 141.359 77.3143Z" fill="#FE337E"/>
</svg>
