<svg width="43" height="43" viewBox="0 0 43 43" fill="none" xmlns="http://www.w3.org/2000/svg">
<path d="M15.8108 3.86367C15.119 2.13411 13.4439 1 11.5812 1H5.31568C2.93219 1 1 2.93178 1 5.31533C1 25.5755 17.4241 42 37.6837 42C40.0672 42 41.9989 40.0676 41.9989 37.6841L42 31.4174C42 29.5546 40.8662 27.8797 39.1367 27.1879L33.1316 24.7867C31.5781 24.1653 29.8092 24.445 28.5238 25.5162L26.974 26.8088C25.164 28.3172 22.5008 28.1972 20.8348 26.5311L16.4708 22.163C14.8048 20.4969 14.6817 17.8358 16.19 16.0258L17.4823 14.476C18.5535 13.1906 18.8357 11.4212 18.2142 9.8676L15.8108 3.86367Z" stroke="white" stroke-width="2" stroke-linecap="round" stroke-linejoin="round"/>
</svg>
