<svg width="43" height="43" viewBox="0 0 43 43" fill="none" xmlns="http://www.w3.org/2000/svg">
<path d="M8.4018 33.8H8.28185C5.73454 33.8 4.4604 33.8 3.48687 33.2048C2.62969 32.6806 1.93328 31.8422 1.49653 30.8135C1 29.6442 1 28.1155 1 25.0539V9.7472C1 6.68558 1 5.15363 1.49653 3.98424C1.93328 2.95563 2.62969 2.11994 3.48687 1.59583C4.46136 1 5.73798 1 8.28933 1H34.7116C37.2629 1 38.5368 1 39.5113 1.59583C40.3685 2.11994 41.0672 2.95563 41.504 3.98424C42 5.15249 42 6.68258 42 9.73822V25.0618C42 28.1174 42 29.6453 41.504 30.8135C41.0672 31.8422 40.3693 32.6806 39.5121 33.2048C38.5385 33.8 37.2645 33.8 34.7181 33.8H34.6039M30.6111 42H12.3889L21.5 28.3333L30.6111 42Z" stroke="white" stroke-width="2" stroke-linecap="round" stroke-linejoin="round"/>
</svg>
