<svg width="210" height="210" viewBox="0 0 210 210" fill="none" xmlns="http://www.w3.org/2000/svg">
<path d="M105 0C84.233 0 63.9323 6.15814 46.6652 17.6957C29.398 29.2332 15.9399 45.632 7.99269 64.8182C0.0454949 84.0045 -2.03385 105.116 2.01759 125.484C6.06904 145.852 16.0693 164.562 30.7538 179.246C45.4383 193.931 64.1475 203.931 84.5155 207.982C104.884 212.034 125.996 209.954 145.182 202.007C164.368 194.06 180.767 180.602 192.304 163.335C203.842 146.068 210 125.767 210 105C209.971 77.1613 198.899 50.4712 179.214 30.7862C159.529 11.1013 132.839 0.0293982 105 0ZM105 193.846C87.4279 193.846 70.2504 188.635 55.6398 178.873C41.0291 169.11 29.6415 155.234 22.9169 139C16.1923 122.765 14.4329 104.901 17.861 87.667C21.2892 70.4325 29.751 54.6016 42.1763 42.1763C54.6017 29.7509 70.4325 21.2891 87.667 17.861C104.901 14.4328 122.765 16.1923 139 22.9169C155.234 29.6414 169.11 41.029 178.873 55.6397C188.635 70.2504 193.846 87.4279 193.846 105C193.819 128.555 184.45 151.138 167.794 167.794C151.138 184.45 128.555 193.819 105 193.846ZM145.385 125.192C145.385 132.69 142.406 139.88 137.105 145.182C131.803 150.483 124.613 153.462 117.115 153.462H113.077V161.538C113.077 163.681 112.226 165.735 110.711 167.25C109.197 168.764 107.142 169.615 105 169.615C102.858 169.615 100.803 168.764 99.2888 167.25C97.7741 165.735 96.9231 163.681 96.9231 161.538V153.462H80.7693C78.6271 153.462 76.5727 152.611 75.058 151.096C73.5433 149.581 72.6923 147.527 72.6923 145.385C72.6923 143.242 73.5433 141.188 75.058 139.673C76.5727 138.159 78.6271 137.308 80.7693 137.308H117.115C120.329 137.308 123.41 136.031 125.682 133.759C127.954 131.487 129.231 128.405 129.231 125.192C129.231 121.979 127.954 118.897 125.682 116.625C123.41 114.353 120.329 113.077 117.115 113.077H92.8846C85.3872 113.077 78.1968 110.099 72.8953 104.797C67.5938 99.4955 64.6154 92.3051 64.6154 84.8077C64.6154 77.3102 67.5938 70.1198 72.8953 64.8183C78.1968 59.5168 85.3872 56.5385 92.8846 56.5385H96.9231V48.4615C96.9231 46.3194 97.7741 44.265 99.2888 42.7503C100.803 41.2356 102.858 40.3846 105 40.3846C107.142 40.3846 109.197 41.2356 110.711 42.7503C112.226 44.265 113.077 46.3194 113.077 48.4615V56.5385H129.231C131.373 56.5385 133.427 57.3894 134.942 58.9041C136.457 60.4188 137.308 62.4732 137.308 64.6154C137.308 66.7575 136.457 68.8119 134.942 70.3266C133.427 71.8413 131.373 72.6923 129.231 72.6923H92.8846C89.6714 72.6923 86.5898 73.9687 84.3178 76.2408C82.0457 78.5129 80.7693 81.5945 80.7693 84.8077C80.7693 88.0209 82.0457 91.1025 84.3178 93.3745C86.5898 95.6466 89.6714 96.9231 92.8846 96.9231H117.115C124.613 96.9231 131.803 99.9014 137.105 105.203C142.406 110.504 145.385 117.695 145.385 125.192Z" fill="#FE337E"/>
</svg>
