<svg id="Layer_1" height="512" viewBox="0 0 512 512" width="512" xmlns="http://www.w3.org/2000/svg" data-name="Layer 1"><path d="m447.765 113.859-109.173-109.172a16 16 0 0 0 -11.314-4.687h-221.052a46.73 46.73 0 0 0 -46.677 46.677v418.646a46.73 46.73 0 0 0 46.677 46.677h299.548a46.73 46.73 0 0 0 46.677-46.677v-340.15a16 16 0 0 0 -4.686-11.314zm-27.314 351.464a14.694 14.694 0 0 1 -14.677 14.677h-299.548a14.694 14.694 0 0 1 -14.677-14.677v-418.646a14.694 14.694 0 0 1 14.677-14.677h214.425l99.8 99.8zm-270.058-304.323h207.607a16 16 0 0 1 0 32h-207.6a16 16 0 0 1 0-32zm223.607 114a16 16 0 0 1 -16 16h-207.6a16 16 0 0 1 0-32h207.6a16 16 0 0 1 16 16zm0 98a16 16 0 0 1 -16 16h-207.6a16 16 0 0 1 0-32h207.6a16 16 0 0 1 16 16z"/></svg>