<svg width="64" height="64" viewBox="0 0 64 64" fill="none" xmlns="http://www.w3.org/2000/svg">
<path d="M57.2737 21.3112C55.1 21.3112 53.1606 22.4433 51.9459 24.1935C50.7312 22.446 48.7919 21.3112 46.6181 21.3112C42.9446 21.3112 39.9584 24.5371 39.9584 28.5037C39.9584 35.1394 50.0279 42.4545 51.176 43.267L51.9459 43.8104L52.7158 43.267C53.8639 42.4545 63.9334 35.1394 63.9334 28.5037C63.9334 24.5371 60.9472 21.3112 57.2737 21.3112ZM51.9459 40.5258C48.7679 38.1177 42.6223 32.6087 42.6223 28.5037C42.6223 26.0049 44.4151 23.975 46.6181 23.975C48.8212 23.975 50.614 26.0076 50.614 28.5037V29.3028H53.2779V28.5037C53.2779 26.0049 55.0706 23.975 57.2737 23.975C59.4767 23.975 61.2695 26.0076 61.2695 28.5037C61.2695 32.6007 55.1213 38.1123 51.9459 40.5258ZM21.3111 31.9667C30.126 31.9667 37.2945 24.7982 37.2945 15.9834C37.2945 7.16854 30.126 0 21.3111 0C12.4963 0 5.32779 7.16854 5.32779 15.9834C5.32779 24.7982 12.4963 31.9667 21.3111 31.9667ZM21.3111 2.66389C28.6555 2.66389 34.6306 8.63901 34.6306 15.9834C34.6306 23.3277 28.6555 29.3028 21.3111 29.3028C13.9668 29.3028 7.99168 23.3277 7.99168 15.9834C7.99168 8.63901 13.9668 2.66389 21.3111 2.66389ZM42.6223 50.614V63.9335H39.9584V50.614C39.9584 44.7374 35.1794 39.9584 29.3028 39.9584H13.3195C7.44292 39.9584 2.66389 44.7374 2.66389 50.614V63.9335H0V50.614C0 43.2696 5.97511 37.2945 13.3195 37.2945H29.3028C36.6472 37.2945 42.6223 43.2696 42.6223 50.614Z" fill="#FE337E"/>
</svg>
