<svg width="1919" height="340" viewBox="0 0 1919 340" fill="none" xmlns="http://www.w3.org/2000/svg">
<path d="M-2 51H1918V340H-2V51Z" fill="#FE337E"/>
<path d="M40.0817 50.5051C64.8389 50.4921 97.2917 50.506 121.955 50.5251C129.685 50.531 125.771 50.5575 131.107 50.5628C141.543 50.5731 151.265 50.5601 161.578 50.5724C164.995 50.5766 160.741 50.6186 164.325 50.622C183.963 50.6406 202.541 50.6299 222.435 50.6388C320.425 50.6828 416.747 50.6986 515.937 50.7177C548.642 50.724 588.399 50.7621 622.18 50.7454C626.124 50.7435 623.773 50.7066 624.523 50.7036C636.291 50.6571 632.378 50.7315 640.062 50.7414C670.557 50.7804 704.469 50.7838 733.817 50.7695C746.303 50.7634 733.784 50.6902 746.356 50.7313C747.229 50.7341 744.061 50.7732 747.485 50.7774C755.25 50.7867 769.982 50.7798 776.001 50.7829C787.599 50.789 789.518 50.7886 800.489 50.7891C815.486 50.79 833.323 50.8095 849.414 50.8006C852.849 50.7986 848.302 50.7585 853.779 50.7517C859.262 50.7449 873.765 50.7483 878.655 50.7577C883.546 50.7672 881.463 50.7987 882.329 50.8059C889.449 50.8669 906.226 50.7824 908.384 50.7804C947.742 50.7448 981.492 50.7929 1018.44 50.7927C1046.48 50.7925 1076.47 50.7766 1103.16 50.7788C1134.95 50.7816 1161.9 50.8033 1192.78 50.7996C1196.04 50.7992 1192.22 50.7521 1196.21 50.7515C1238.5 50.7461 1280.51 50.7512 1322.62 50.783C1326.85 50.7863 1321.4 50.8277 1325.62 50.8334C1351.46 50.8674 1392.34 50.9492 1407.68 50.7689C1425.18 50.7759 1446.43 50.7832 1462.08 50.8195C1472.18 50.8429 1462.37 50.888 1474.78 50.8688C1477.57 50.8645 1473.93 50.825 1478.13 50.8216C1495.79 50.8071 1515.08 50.8199 1532.55 50.7995C1536.1 50.7953 1535.13 50.7599 1536.14 50.7535C1544.6 50.7019 1558.68 50.7872 1561.76 50.7934C1585.14 50.8397 1602.21 50.8215 1623.99 50.8226C1629.05 50.8229 1623.07 50.7753 1627.94 50.7739C1653.16 50.7671 1679.3 50.7712 1704 50.7923C1709.49 50.7971 1704.44 50.8376 1707.07 50.8419C1718.64 50.8607 1721.21 50.7842 1732.31 50.8007C1734.65 50.8041 1733.33 50.8388 1733.76 50.8426C1740.44 50.9024 1746.25 50.8177 1747.97 50.8158C1769.71 50.7903 1783.61 50.8787 1804.61 50.8662C1807.13 50.8646 1801.46 50.8207 1808.52 50.8189C1844.31 50.8097 1881.67 50.8145 1918 50.8327L1918.17 50.8327V51C1918.16 62.4381 1918.15 73.7743 1918.15 84.9276C1918.14 92.1697 1918.11 87 1918.1 87.4556C1918.04 94.8832 1918.13 99.6894 1918.13 102.051C1918.15 120.68 1918.08 138.082 1918.18 150.74C1918.15 214.047 1918.18 277.122 1918.15 340V340.151L1918 340.151C1902.52 340.143 1887.04 340.13 1871.58 340.112C1870.59 340.111 1872.37 340.069 1870.39 340.068C1846.49 340.044 1851.08 340.109 1835.26 340.189C1831.28 340.209 1819.16 340.113 1818.09 340.106C1814.18 340.08 1818.24 340.017 1816.93 340.012C1806.1 339.973 1807.87 340.179 1793.26 340.179C1792.81 340.179 1794.73 340.141 1793.5 340.137C1789.69 340.125 1785.92 340.14 1782.19 340.127C1773.66 340.097 1770.63 339.997 1757.6 340.055C1755.95 340.063 1758.47 340.179 1745.43 340.174C1740.24 340.172 1717.23 340.174 1710.78 340.166C1704.34 340.159 1708.77 340.121 1708.31 340.119C1690.96 340.069 1697.53 340.049 1688.84 339.975C1680.15 339.901 1682.56 340.077 1679.02 340.096C1675.47 340.116 1662.74 340.075 1659.62 340.06C1656.49 340.046 1660.39 340.022 1657.61 340.014C1639.19 339.961 1649.53 340.101 1643.46 340.129C1629.14 340.195 1618 340.065 1604.89 340.052C1601.35 340.049 1604.24 340.078 1601.09 340.081C1588.58 340.092 1581.06 340.051 1566.84 340.088C1564.51 340.094 1553.01 340.172 1545.57 340.115C1544.52 340.107 1547.51 340.074 1542.18 340.067C1534.22 340.056 1519.88 340.049 1511.32 340.06C1505.01 340.068 1512.25 340.121 1504.3 340.105C1500.76 340.097 1507.31 340.066 1500.67 340.055C1494.07 340.044 1477.18 340.045 1470.76 340.046C1464.35 340.047 1467.86 340.088 1467.34 340.09C1464.2 340.106 1451.89 340.125 1450.8 340.125C1395.94 340.13 1345.35 340.062 1291.93 340.085C1287.74 340.086 1290.53 340.129 1289.89 340.13C1275.54 340.148 1286.85 340.034 1276.83 339.996C1278.28 340.083 1272.36 340.067 1262.25 340.077C1257.38 340.081 1260.03 340.115 1259.59 340.118C1252.36 340.169 1247.33 340.103 1246.04 340.09C1241.25 340.04 1236.05 340.099 1232.79 340.066C1229.54 340.033 1237.02 339.984 1227.33 339.985C1224.61 340.016 1231.81 340.097 1224.45 340.11C1196.67 340.16 1144.83 340.096 1122.5 340.09C1100.21 340.083 1093.02 340.089 1080.03 340.078C1056.57 340.057 1065.17 340.117 1050.6 340.145C1036 340.172 1043.1 340.024 1041 339.993C1038.94 339.961 1036.69 339.994 1034.12 339.976C1031.57 339.959 1037.1 339.937 1031.09 339.93C1025.07 339.924 1008.63 339.98 1006.5 340.014C1001.99 340.084 1009.4 340.158 993.488 340.132C992.573 340.131 995.543 340.092 992.039 340.088C964.204 340.058 935.286 340.056 907.486 340.029C903.663 340.026 907.081 339.982 904.857 339.98C881.684 339.952 889.968 340.025 877.267 340.106C880.119 339.998 873.096 339.932 855.51 339.932C844.938 339.931 846.758 339.978 839.92 340.012C837.869 340.022 830.389 339.989 829.033 340.011C824.563 340.084 831.609 340.165 813.477 340.133C812.682 340.131 815.215 340.091 812.466 340.089C794.698 340.073 792.572 340.149 773.366 340.158C758.312 340.165 731.538 340.119 714.397 340.112C714.757 339.99 698.566 340.018 691.998 340.102C680.874 340.098 668.859 340.103 658.106 340.092C654.406 340.088 656.837 340.053 656.37 340.049C649.215 339.989 644.378 340.071 641.978 340.074C615.953 340.105 594.75 340.043 569.913 340.103C569.031 340.106 567.603 340.19 560.964 340.128C560.534 340.124 568.737 340.086 557.053 340.083C545.368 340.08 523.34 340.035 507.117 340.074C503.191 340.083 493.261 340.151 485.292 340.098C484.23 340.091 485.392 340.067 483.859 340.053C478.905 340.01 476.199 340.095 470.377 340.023C464.553 339.951 452.44 339.897 436.08 339.947C435.559 339.948 431.686 340.015 426.541 340.014C418.328 340.013 406.668 339.999 398.093 339.999C393.986 339.999 396.615 340.041 395.902 340.042C368.293 340.065 348.644 340.028 319.067 340.012C313.645 340.009 298.064 340.066 287.568 340.021C276.043 339.971 287.887 339.766 261.395 339.815C250.71 339.834 237.182 340.095 217.981 339.96C180.74 339.993 146.3 339.924 108.956 339.972C107.277 339.974 101.966 340.047 98.0183 340.046C92.1574 340.044 88.9398 340.01 84.7548 340.008C67.2181 339.998 51.1701 340.027 34.2621 340.023C27.8426 340.021 30.0873 339.986 22.4311 339.984C14.7794 339.982 9.67735 340.028 -0.691826 340.006C-1.12778 340.005 -1.56364 340.004 -2 340.002C-1.97836 332.598 -1.89329 325.069 -1.88286 315.253C-1.97632 314.857 -1.97439 307.718 -1.99907 295.029C-2.00385 292.59 -2.03638 295.205 -2.04033 294.051C-2.05709 289.356 -2.03013 285.01 -2.04838 280.552C-2.05277 279.467 -2.08469 279.416 -2.09007 278.529C-2.13708 270.99 -2.06528 258.568 -2.05278 256.435C-2.0053 248.258 -2.04682 244.437 -2.02812 238.166C-2.00943 231.904 -1.98606 241.266 -1.97471 233.952C-1.95125 218.792 -1.95641 199.312 -1.95494 183.915C-1.95455 177.771 -1.99716 181.962 -1.99809 181.083C-2.0089 168.38 -1.96358 155.533 -2.04844 148.489C-1.82901 139.681 -2.06973 140.828 -2.0258 122.669C-2.02225 121.239 -1.91848 119.419 -1.90324 124.911C-1.88802 130.402 -1.92046 138.729 -1.89671 146.348C-1.89114 148.153 -1.7939 158.488 -1.78801 159.899C-1.74197 170.945 -1.89704 172.51 -1.90556 173.095C-1.99748 179.722 -1.89272 192.352 -1.88548 195.678C-1.85231 210.894 -1.87412 223.821 -1.85045 236.548C-1.83515 244.871 -1.73357 245.685 -1.73668 252.221C-1.74695 273.948 -1.88866 281.532 -1.76579 302.006C-1.73959 306.396 -1.62857 302.034 -1.71586 317.764C-1.72137 318.752 -1.80123 330.431 -1.75072 337.179C-1.74435 338.027 -1.71199 338 -1.70927 339.117C-1.70857 339.415 -1.70794 339.709 -1.70737 340L-2 339.707C5.01013 339.694 9.92757 339.717 17.7627 339.705C25.9213 339.693 35.7328 339.674 45.0483 339.685C50.6625 339.692 57.8655 339.752 60.5533 339.767C68.1417 339.809 76.2786 339.74 80.9796 339.791C85.7204 339.843 76.452 339.922 88.8838 339.955C89.3443 339.871 90.4018 339.785 91.1422 339.7C118.386 339.703 145.192 339.73 172.527 339.727C175.916 339.726 172.45 339.681 176.083 339.679C191.411 339.672 204.799 339.704 220.694 339.691C232.998 339.681 246.49 339.633 259.356 339.621C267.214 339.717 286.306 339.685 300.175 339.694C305.033 339.697 304.708 339.722 308.163 339.731C321.197 339.762 315.089 339.677 318.663 339.663C333.993 339.606 335.306 339.799 353.381 339.794C354.338 339.794 366.043 339.691 367.655 339.685C377.899 339.643 369.351 339.72 375.762 339.728C387.467 339.742 395.6 339.766 409.334 339.736C413.338 339.727 422.944 339.664 430.721 339.713C431.744 339.719 431.178 339.753 432.002 339.755C446.906 339.788 447.298 339.682 455.815 339.646C464.334 339.61 477.491 339.683 480.168 339.704C487.173 339.759 474.801 339.728 474.422 339.733C469.965 339.797 479.561 339.786 486.893 339.792C487.954 339.896 498.208 339.89 494.494 339.797C494.071 339.787 488.365 339.796 486.893 339.792C493.329 339.689 504.598 339.676 517.044 339.772C522.87 339.817 517.362 339.869 535.06 339.85C543.092 339.841 539.988 339.769 547.076 339.75C563.27 339.705 584.312 339.772 601.007 339.762C607.066 339.758 601.164 339.718 605.305 339.714C616.294 339.704 625.986 339.733 637.023 339.718C638.023 339.717 635.579 339.675 639.011 339.675C665.03 339.67 687.686 339.697 714.852 339.697C727.977 339.698 751.443 339.675 765.041 339.679C788.607 339.687 817.598 339.747 837.729 339.732C850.86 339.723 847.979 339.682 853.605 339.654C864.462 339.599 883.679 339.697 886.267 339.712C886.346 339.713 875.047 339.722 881.076 339.743C884.582 339.787 886.14 339.712 886.267 339.712C887.966 339.722 910.537 339.731 915.019 339.723C917.454 339.719 916.092 339.68 917.362 339.678C947.543 339.643 977.776 339.634 1008.39 339.652C1008.93 339.653 1008.11 339.696 1009.38 339.698C1027.1 339.717 1038.45 339.664 1053.06 339.632C1067.68 339.6 1079.27 339.611 1087.92 339.686C1098.94 339.676 1114.76 339.709 1123.87 339.73C1132.97 339.75 1134.24 339.665 1135.04 339.663C1160.02 339.609 1174.46 339.658 1200.38 339.665C1212.7 339.669 1237.14 339.657 1250.49 339.648C1261.03 339.64 1267.38 339.66 1277.1 339.647C1278.41 339.646 1277.08 339.608 1277.48 339.606C1288.33 339.561 1283.12 339.653 1285.35 339.67C1293.47 339.73 1298.49 339.762 1312.37 339.734C1315.57 339.727 1324.9 339.594 1330.74 339.586C1338.33 339.576 1335.47 339.624 1343.41 339.613C1344.09 339.612 1343.95 339.582 1348.86 339.583C1371.63 339.589 1396.45 339.606 1420.11 339.603C1423.35 339.603 1419.2 339.556 1423.87 339.555C1445.79 339.55 1469.8 339.551 1491.15 339.573C1496.41 339.579 1493.11 339.611 1494.25 339.621C1501.26 339.68 1511.19 339.595 1512.82 339.593C1551.91 339.552 1581.83 339.629 1621.66 339.592C1623.83 339.59 1640.52 339.499 1647.97 339.577C1648.48 339.582 1655.85 339.663 1662.36 339.608C1662.77 339.604 1658.18 339.563 1666.19 339.567C1674.2 339.571 1687.1 339.544 1698.11 339.589C1701.6 339.604 1709.84 339.684 1720.24 339.62C1720.92 339.615 1736.97 339.471 1742.7 339.571C1743.63 339.587 1742.66 339.692 1755.08 339.638C1757.45 339.628 1753.14 339.604 1759.39 339.59C1768.96 339.567 1781.65 339.595 1793.42 339.548C1795.47 339.54 1804.21 339.468 1811.21 339.523C1812.31 339.531 1810.23 339.566 1813.93 339.57C1831.53 339.589 1849.95 339.566 1867.82 339.59C1874.15 339.599 1870.92 339.656 1877.51 339.671C1884.11 339.686 1897.41 339.701 1904.31 339.675C1911.22 339.649 1903.67 339.558 1914.02 339.551C1915.35 339.55 1916.67 339.549 1918 339.548L1917.55 340C1917.52 296.375 1917.57 253.126 1917.58 209.541C1917.58 202.88 1917.55 208.402 1917.55 198.587C1917.55 162.397 1917.52 99.9152 1917.58 68.5124C1917.64 43.3514 1917.68 75.015 1917.7 55.7881C1917.71 54.2 1917.7 52.5897 1917.7 51L1918 51.2994C1910.3 51.3182 1903.09 51.3911 1901.23 51.3939C1879.35 51.4276 1864.15 51.3809 1844.45 51.3952C1840.39 51.3982 1844.38 51.4409 1840.91 51.443C1829.09 51.4504 1816.67 51.4313 1805.37 51.4348C1800.3 51.4365 1801.24 51.4692 1796.57 51.4666C1785.42 51.461 1775.55 51.4472 1764.67 51.4166C1763.68 51.4139 1770.36 51.3732 1762.11 51.3717C1748.75 51.3694 1732.16 51.3392 1716.79 51.3704C1712.23 51.3798 1712.05 51.4544 1702.24 51.4028C1700.19 51.3921 1702.81 51.3025 1691.39 51.3799C1689.47 51.3928 1670.29 51.4972 1660.87 51.4299C1658.39 51.4122 1652.05 51.3388 1646.56 51.3504C1645.82 51.3522 1648.8 51.3923 1644.25 51.3962C1628.23 51.4093 1611.45 51.405 1594.99 51.4176C1590.6 51.421 1597.14 51.4625 1590.59 51.4663C1572.58 51.4767 1550.09 51.4662 1532.48 51.4532C1525.99 51.4483 1530.48 51.414 1530 51.4102C1522.41 51.3494 1517.91 51.4315 1515.39 51.4363C1499.71 51.465 1487.77 51.4264 1473.31 51.4366C1469.32 51.4393 1472.15 51.4785 1471.35 51.4819C1463.12 51.5161 1469.25 51.4458 1464.04 51.438C1449.43 51.4161 1433.15 51.4192 1418.38 51.4242C1412.96 51.4261 1419.06 51.4715 1414.19 51.4727C1385.37 51.4805 1355.41 51.4762 1327.29 51.4511C1322 51.4463 1325.33 51.4114 1324.22 51.4034C1316.62 51.3475 1305.47 51.4237 1302.9 51.431C1291.24 51.4641 1286.71 51.4332 1276.41 51.439C1226.09 51.4677 1163.97 51.4472 1116.47 51.4346C1054.58 51.4183 1006.55 51.3851 947.534 51.3937C943.783 51.3942 947.566 51.4407 944.332 51.4417C902.584 51.4529 861.483 51.4348 819.651 51.4482C816.218 51.4492 821.167 51.4933 815.657 51.4964C804.355 51.5031 790.04 51.5007 778.613 51.4866C773.04 51.4799 780.515 51.442 774.905 51.436C761.843 51.4218 747.841 51.4187 734.424 51.4257C728.714 51.4288 737.328 51.4739 729.907 51.4744C679.352 51.4789 629.702 51.4867 578.614 51.4283C575.112 51.4243 572.039 51.3327 564.592 51.3502C564.031 51.3757 564.062 51.4056 563.817 51.4328C490.222 51.4474 417.379 51.4156 343.577 51.4107C340.465 51.4105 345.843 51.4591 339.819 51.4589C304.952 51.4582 271.094 51.4717 235.429 51.4234C231.89 51.4187 233.706 51.3333 223.278 51.3462C221.439 51.3486 205.733 51.36 201.672 51.3785C201.12 51.3813 203.986 51.4212 198.925 51.4223C169.514 51.4284 138.692 51.4193 109.332 51.3949C104.594 51.3909 109.64 51.3485 106.265 51.3452C82.3244 51.3227 56.284 51.355 33.4078 51.3164C18.0952 51.2905 23.7643 51.2171 15.6275 51.1449C14.4766 51.1347 4.99458 51.133 4.50423 51.091C3.24537 50.9853 7.83815 50.8696 5.95362 50.757C5.55547 50.7327 -7.14337 50.7588 0.375156 50.7002C0.900405 50.6963 10.1071 50.6768 12.3748 50.6569C13.9535 50.6432 11.1085 50.6004 14.3297 50.5828C17.5507 50.5653 21.0901 50.6011 26.4305 50.5804C31.7684 50.5595 29.4213 50.5108 40.0817 50.5051ZM1164.85 339.819C1173.28 339.86 1174.53 339.711 1165.41 339.747C1164.97 339.748 1164.42 339.817 1164.85 339.819ZM145.039 339.843C156.058 339.909 163.599 339.812 155.825 339.761C148.053 339.71 141.682 339.823 145.039 339.843ZM30.7735 339.891C43.6522 339.943 45.6792 339.731 31.8857 339.774C31.0838 339.776 30.0207 339.888 30.7735 339.891ZM53.3621 51.1243C53.2458 51.1223 46.4298 51.1204 46.2669 51.1223C42.6375 51.1698 56.2667 51.1737 53.3621 51.1243ZM-1.94365 259.384C-1.97233 263.404 -1.93922 274.98 -1.90355 269.985C-1.87485 265.963 -1.90796 254.377 -1.94365 259.384ZM1604.54 339.979C1604.67 339.981 1609.56 339.983 1609.46 339.971C1609.13 339.93 1602.33 339.942 1604.54 339.979ZM-1.94609 66.6657C-1.95407 95.1389 -2.12925 112.403 -2.10948 81.3956C-2.1059 75.7805 -2.05362 93.4974 -2.03782 86.3505C-2.00905 73.2734 -2.11904 64.5899 -2.0601 51.2449C-2.04931 48.8291 -1.94524 65.0415 -1.94584 66.7163C-1.94593 66.6994 -1.94601 66.6826 -1.94609 66.6657ZM1169.71 339.999C1169.88 340.001 1176.64 340.003 1176.8 340.001C1180.47 339.953 1166.84 339.95 1169.71 339.999ZM1889.68 340.072C1890.06 340.076 1905.75 340.08 1906.27 340.076C1914.46 339.998 1882.72 339.99 1889.68 340.072ZM714.127 340.109C706.746 340.156 697.916 340.162 692.032 340.102C699.367 340.105 706.751 340.106 714.127 340.109Z" fill="#FE337E"/>
<ellipse cx="48" cy="50.5" rx="50" ry="50.5" fill="#FE337E"/>
<ellipse cx="149" cy="50.5" rx="51" ry="50.5" fill="#FE337E"/>
<ellipse cx="250" cy="50.5" rx="50" ry="50.5" fill="#FE337E"/>
<ellipse cx="351" cy="50.5" rx="51" ry="50.5" fill="#FE337E"/>
<circle cx="452.5" cy="50.5" r="50.5" fill="#FE337E"/>
<ellipse cx="554" cy="50.5" rx="51" ry="50.5" fill="#FE337E"/>
<ellipse cx="655" cy="50.5" rx="50" ry="50.5" fill="#FE337E"/>
<ellipse cx="756" cy="50.5" rx="51" ry="50.5" fill="#FE337E"/>
<ellipse cx="857" cy="50.5" rx="50" ry="50.5" fill="#FE337E"/>
<ellipse cx="958" cy="50.5" rx="51" ry="50.5" fill="#FE337E"/>
<ellipse cx="1059" cy="50.5" rx="50" ry="50.5" fill="#FE337E"/>
<ellipse cx="1160" cy="50.5" rx="51" ry="50.5" fill="#FE337E"/>
<ellipse cx="1261" cy="50.5" rx="50" ry="50.5" fill="#FE337E"/>
<ellipse cx="1362" cy="50.5" rx="51" ry="50.5" fill="#FE337E"/>
<circle cx="1463.5" cy="50.5" r="50.5" fill="#FE337E"/>
<ellipse cx="1565" cy="50.5" rx="51" ry="50.5" fill="#FE337E"/>
<ellipse cx="1666" cy="50.5" rx="50" ry="50.5" fill="#FE337E"/>
<ellipse cx="1767" cy="50.5" rx="51" ry="50.5" fill="#FE337E"/>
<ellipse cx="1868" cy="50.5" rx="50" ry="50.5" fill="#FE337E"/>
</svg>
