<svg width="74" height="65" viewBox="0 0 74 65" fill="none" xmlns="http://www.w3.org/2000/svg">
<path d="M72 21.7026C72 43.9474 39.5656 61.953 38.1844 62.6966C37.8203 62.8958 37.4134 63 37 63C36.5866 63 36.1797 62.8958 35.8156 62.6966C34.4344 61.953 2 43.9474 2 21.7026C2.00579 16.4789 4.04894 11.4709 7.6812 7.77725C11.3135 4.08358 16.2382 2.00589 21.375 2C27.8281 2 33.4781 4.82192 37 9.59184C40.5219 4.82192 46.1719 2 52.625 2C57.7618 2.00589 62.6865 4.08358 66.3188 7.77725C69.9511 11.4709 71.9942 16.4789 72 21.7026Z" stroke="#FE337E" stroke-width="4"/>
</svg>
