<svg width="43" height="43" viewBox="0 0 43 43" fill="none" xmlns="http://www.w3.org/2000/svg">
<path d="M42 34.473V20.5545C42 19.214 41.9988 18.5434 41.8323 17.9196C41.6848 17.3668 41.4426 16.8437 41.1148 16.371C40.745 15.8375 40.2307 15.3952 39.2003 14.5124L26.9003 3.97566C24.9871 2.33673 24.0305 1.51768 22.9539 1.20599C22.0053 0.931338 20.9942 0.931338 20.0456 1.20599C18.9698 1.51744 18.0146 2.33572 16.1043 3.97218L3.80023 14.5125C2.76977 15.3952 2.25573 15.8375 1.88586 16.371C1.55809 16.8437 1.31403 17.3668 1.16649 17.9196C1 18.5434 1 19.214 1 20.5545V34.473C1 36.8108 1 37.9793 1.39012 38.9014C1.91027 40.1308 2.90732 41.1088 4.16309 41.6181C5.10491 42 6.29889 42 8.68684 42C11.0748 42 12.2701 42 13.2119 41.6181C14.4677 41.1088 15.4645 40.1311 15.9846 38.9016C16.3747 37.9796 16.375 36.8106 16.375 34.4728V31.964C16.375 29.1929 18.6695 26.9465 21.5 26.9465C24.3305 26.9465 26.625 29.1929 26.625 31.964V34.4728C26.625 36.8106 26.625 37.9796 27.0151 38.9016C27.5353 40.1311 28.5323 41.1088 29.7881 41.6181C30.7299 42 31.9239 42 34.3118 42C36.6998 42 37.8951 42 38.8369 41.6181C40.0927 41.1088 41.0895 40.1308 41.6096 38.9014C41.9997 37.9793 42 36.8108 42 34.473Z" stroke="white" stroke-width="2" stroke-linecap="round" stroke-linejoin="round"/>
</svg>
