<svg width="206" height="206" viewBox="0 0 206 206" fill="none" xmlns="http://www.w3.org/2000/svg">
<path d="M201.675 100.295L186.911 85.5322C184.407 83.0312 181.088 81.5129 177.558 81.2538C174.028 80.9946 170.523 82.012 167.681 84.1205L121.876 38.3176C123.986 35.4764 125.004 31.9719 124.747 28.4425C124.49 24.913 122.973 21.5935 120.473 19.0885L105.709 4.32524C104.338 2.95399 102.711 1.86624 100.919 1.12411C99.1277 0.381974 97.2075 0 95.2684 0C93.3293 0 91.4092 0.381974 89.6178 1.12411C87.8263 1.86624 86.1986 2.95399 84.8276 4.32524L25.772 63.3782C24.4007 64.7491 23.3129 66.3767 22.5708 68.1681C21.8286 69.9595 21.4466 71.8795 21.4466 73.8185C21.4466 75.7575 21.8286 77.6776 22.5708 79.469C23.3129 81.2603 24.4007 82.888 25.772 84.2589L40.5359 99.0221C43.0405 101.519 46.3584 103.034 49.8859 103.292C53.4134 103.549 56.9161 102.532 59.7567 100.425L66.3727 107.04L6.0438 167.367C2.03577 171.75 -0.127012 177.51 0.00577146 183.448C0.138555 189.386 2.55667 195.044 6.75664 199.244C10.9566 203.443 16.6147 205.861 22.5529 205.994C28.491 206.127 34.2516 203.964 38.6351 199.956L98.9548 139.63L105.571 146.237C103.461 149.078 102.442 152.582 102.7 156.112C102.957 159.641 104.474 162.961 106.973 165.466L121.737 180.229C123.108 181.6 124.736 182.688 126.527 183.43C128.319 184.172 130.239 184.554 132.178 184.554C134.117 184.554 136.037 184.172 137.829 183.43C139.62 182.688 141.248 181.6 142.619 180.229L201.675 121.176C203.046 119.805 204.134 118.178 204.876 116.386C205.618 114.595 206 112.675 206 110.736C206 108.797 205.618 106.877 204.876 105.085C204.134 103.294 203.046 101.666 201.675 100.295ZM50.9722 88.5864L36.2083 73.8231L95.2638 14.7702L110.028 29.5335L50.9722 88.5864ZM28.1989 189.511C26.6429 191.058 24.538 191.926 22.3441 191.926C20.1501 191.926 18.0452 191.058 16.4893 189.511C14.9453 187.956 14.0789 185.853 14.0789 183.662C14.0789 181.47 14.9453 179.367 16.4893 177.812L76.809 117.485L88.5186 129.185L28.1989 189.511ZM70.3498 90.1181L111.559 48.9102L157.088 94.4363L115.887 135.644L70.3498 90.1181ZM132.174 169.784L117.41 155.021L121.101 151.33L172.774 99.6588L176.465 95.968L191.229 110.731L132.174 169.784Z" fill="#FE337E"/>
</svg>
