<svg width="206" height="177" viewBox="0 0 206 177" fill="none" xmlns="http://www.w3.org/2000/svg">
<path d="M95.6438 88.4668C95.6438 90.4221 94.8687 92.2972 93.4889 93.6798C92.1092 95.0624 90.2378 95.8391 88.2866 95.8391H44.1433C42.192 95.8391 40.3207 95.0624 38.941 93.6798C37.5612 92.2972 36.7861 90.4221 36.7861 88.4668C36.7861 86.5116 37.5612 84.6364 38.941 83.2539C40.3207 81.8713 42.192 81.0946 44.1433 81.0946H88.2866C90.2378 81.0946 92.1092 81.8713 93.4889 83.2539C94.8687 84.6364 95.6438 86.5116 95.6438 88.4668ZM88.2866 51.6057H44.1433C42.192 51.6057 40.3207 52.3824 38.941 53.7649C37.5612 55.1475 36.7861 57.0227 36.7861 58.9779C36.7861 60.9331 37.5612 62.8083 38.941 64.1908C40.3207 65.5734 42.192 66.3501 44.1433 66.3501H88.2866C90.2378 66.3501 92.1092 65.5734 93.4889 64.1908C94.8687 62.8083 95.6438 60.9331 95.6438 58.9779C95.6438 57.0227 94.8687 55.1475 93.4889 53.7649C92.1092 52.3824 90.2378 51.6057 88.2866 51.6057ZM191.288 111.938V169.561C191.299 170.861 190.968 172.141 190.327 173.271C189.686 174.401 188.758 175.341 187.638 175.996C186.517 176.651 185.244 176.997 183.947 177C182.65 177.003 181.375 176.662 180.252 176.012L158.18 163.35L136.108 176.012C134.985 176.662 133.71 177.003 132.413 177C131.116 176.997 129.843 176.651 128.722 175.996C127.602 175.341 126.674 174.401 126.033 173.271C125.392 172.141 125.061 170.861 125.073 169.561V147.445H14.7144C10.8119 147.445 7.06925 145.891 4.30976 143.126C1.55027 140.361 0 136.611 0 132.7V14.7445C0 10.834 1.55027 7.08368 4.30976 4.31856C7.06925 1.55343 10.8119 0 14.7144 0H176.573C180.476 0 184.218 1.55343 186.978 4.31856C189.737 7.08368 191.288 10.834 191.288 14.7445V42.8788C195.938 47.3416 199.64 52.7016 202.168 58.6359C204.696 64.5702 206 70.9559 206 77.4085C206 83.861 204.696 90.2468 202.168 96.1811C199.64 102.115 195.938 107.475 191.288 111.938ZM125.073 132.7V111.938C117.055 104.19 111.988 93.881 110.746 82.7894C109.504 71.6978 112.165 60.5197 118.269 51.1839C124.374 41.8481 133.539 34.9403 144.183 31.6525C154.827 28.3648 166.283 28.9032 176.573 33.1751V14.7445H14.7144V132.7H125.073ZM176.573 121.642C170.747 124.081 164.495 125.337 158.18 125.337C151.865 125.337 145.614 124.081 139.787 121.642V156.863L154.502 148.422C155.613 147.785 156.872 147.45 158.153 147.45C159.433 147.45 160.692 147.785 161.804 148.422L176.518 156.863L176.573 121.642ZM191.288 77.4085C191.288 70.8471 189.346 64.433 185.708 58.9774C182.07 53.5218 176.899 49.2697 170.85 46.7587C164.8 44.2478 158.143 43.5908 151.721 44.8709C145.299 46.1509 139.4 49.3106 134.77 53.9502C130.139 58.5898 126.986 64.501 125.709 70.9363C124.431 77.3717 125.087 84.0421 127.593 90.104C130.099 96.166 134.342 101.347 139.787 104.993C145.231 108.638 151.632 110.584 158.18 110.584C162.528 110.584 166.833 109.725 170.85 108.058C174.867 106.391 178.516 103.947 181.591 100.867C184.665 97.7862 187.104 94.129 188.767 90.104C190.431 86.079 191.288 81.7651 191.288 77.4085Z" fill="#FE337E"/>
</svg>
