<svg width="184" height="50" viewBox="0 0 184 50" fill="none" xmlns="http://www.w3.org/2000/svg">
<path d="M173.36 28.6164C174.218 27.1985 174.361 24.9823 173.451 23.5853C172.667 22.3144 171.27 21.7052 169.862 21.9258C167.205 22.3775 164.957 23.8794 162.58 25.0453C160.329 26.2777 157.794 28.5184 155.077 26.9324C153.544 25.742 152.788 24.0335 153.082 22.1289C152.837 21.8838 152.536 21.8418 152.199 21.8418C150.964 21.8068 149.717 22.5385 149.055 23.6449C147.673 26.0676 148.268 29.4532 148.919 32.058C149.84 35.0444 151.258 37.9048 153.733 40.156C154.661 40.9718 156.187 41.0558 157.371 40.6777C160.746 39.6588 163.949 38.1044 166.816 35.7971C168.658 34.4282 170.356 32.8562 171.802 31.0357C172.411 30.2409 172.898 29.4252 173.36 28.6164ZM183.072 27.7026C182.809 28.9 182.389 30.0413 181.966 31.1547C180.933 33.805 179.266 36.2033 177.39 38.493C175.244 40.9367 172.782 43.0269 170.171 44.865C166.869 47.0742 163.368 48.7267 159.534 49.6265C156.947 50.1761 153.985 50.2041 151.587 49.1293C149.917 48.5166 148.453 47.3402 147.077 46.1149C145.638 44.809 144.553 43.2825 143.611 41.7035C143.527 41.5704 143.349 41.6195 143.265 41.6825C140.691 42.8378 138.034 43.7516 135.359 44.5989C132.656 45.4427 129.306 45.1941 127.405 42.9044C127.104 42.5753 126.918 42.1866 126.652 41.9136C126.515 41.9136 126.4 41.9136 126.347 41.9451C123.739 42.9849 121.148 44.0702 118.372 44.6619C116.264 45.1206 114.069 44.7214 112.417 43.6011C111.562 42.9044 110.81 42.0851 110.487 41.1223C109.892 39.4978 110.015 37.7332 110.039 36.0247C110.123 33.2343 110.417 30.4545 110.505 27.6116C110.487 27.1985 110.295 26.7678 109.857 26.6278C109.283 26.4212 108.576 26.5368 107.967 26.5963C107.561 26.6593 107.116 26.6593 106.713 26.7433C106.643 26.7433 106.622 26.7923 106.591 26.8589C105.351 31.4523 103.937 36.0002 101.542 40.128C100.352 42.1271 98.3456 44.5989 95.9474 45.012C92.8279 45.6737 90.6012 42.6733 89.0503 40.4431C87.9999 38.9516 87.0056 37.4217 85.9063 35.9477C85.6647 35.7166 85.4616 35.482 85.1465 35.5976C84.7684 35.7306 84.5093 36.0982 84.2993 36.4133C82.5697 39.0917 81.0503 41.84 79.2367 44.4728C78.8831 44.879 78.3894 45.068 77.8713 45.068C77.2271 45.0295 76.7614 44.4623 76.4673 43.9267C74.9444 41.2974 73.635 38.5805 72.2555 35.8567C72.049 35.5976 71.8319 35.2475 71.4258 35.3525C71.0546 35.5066 70.7991 35.8567 70.575 36.1543C68.5024 38.7731 66.7658 41.5774 64.4761 44.0982C63.8109 44.7704 62.8726 45.3201 61.9308 44.9875C59.9212 44.1262 59.1404 41.9136 57.8485 40.3696C57.4319 39.8199 57.1763 39.1617 56.5916 38.7206C56.063 38.542 55.7619 39.1897 55.3978 39.4978C53.7313 41.4689 51.7987 43.482 49.5054 44.5709C46.421 45.7963 42.8674 44.879 40.5146 42.7048C38.6801 40.7022 37.8328 38.2899 37.5702 35.6291C37.3952 32.198 37.9028 28.9245 39.0582 26.0011C40.4936 22.2619 43.1194 18.4282 46.8376 16.3136C50.3072 14.1989 55.7619 14.0344 59.2525 16.2541C60.7684 17.1888 61.6857 18.7713 61.4021 20.5814C61.2656 22.1289 60.2013 23.7919 58.6678 24.2856C56.4656 24.8142 54.9601 23.2667 52.9575 23.0987C50.7308 22.7591 48.9348 24.5516 47.8599 26.3127C46.568 28.4974 45.6402 30.9236 45.7243 33.6125C45.8468 34.3652 46.1269 35.195 46.9146 35.5276C47.3873 35.7656 47.986 35.6781 48.4201 35.482C49.9011 34.2287 51.186 32.6742 52.3518 31.1547C53.4022 29.8943 54.3054 28.3538 55.7479 27.44C56.3921 27.1424 57.2674 27.1424 57.88 27.5276C59.0774 28.2383 59.6936 29.5162 60.4954 30.5665C61.0485 31.2492 61.4021 32.184 62.2774 32.5026C62.7641 32.5026 63.0582 32.079 63.4293 31.8024C65.845 28.837 68.1102 25.7735 70.575 22.8011C71.2612 22.0063 72.1855 21.1521 73.3304 21.4147C74.0411 21.6597 74.6153 22.2059 75.0389 22.8851C76.1767 24.7022 77.1641 26.5963 78.3089 28.4414C78.456 28.6479 78.6485 28.8755 78.9146 28.8755C79.2647 28.8755 79.4643 28.5184 79.7023 28.3223C81.4459 26.1866 82.5697 23.7499 84.6599 21.8418C85.1745 21.3586 86.0288 21.3026 86.6625 21.5477C87.9369 22.2339 88.5321 23.6449 89.4074 24.7267C91.2594 27.398 92.7229 30.1919 94.757 32.7617C94.9776 32.9333 95.1982 33.1433 95.5203 33.0593C96.245 32.7022 96.4971 31.8584 96.8997 31.2177C97.768 29.5617 98.3456 27.7586 98.7308 25.8996C98.7623 25.742 98.6152 25.6265 98.4927 25.5985C96.3605 24.5761 95.1106 22.3705 95.2507 19.9827C95.3627 18.0081 96.6686 16.0475 98.5207 15.2807C100.495 14.4405 103.097 14.563 104.809 15.8759C105.645 16.5096 106.104 17.4409 106.479 18.3617C106.5 18.3792 106.549 18.4282 106.591 18.4387C109.486 18.3267 112.259 18.0361 115.186 18.2707C116.695 18.4387 118.127 19.4435 118.81 20.8615C119.398 22.3705 119.153 24.0335 119.153 25.7245C119.027 28.2383 118.859 30.7276 118.761 33.2624C118.859 33.4269 118.761 33.7 118.845 33.9066C118.859 34.2777 119.009 34.5963 119.268 34.8343C119.797 35.195 120.518 35.0689 121.078 34.8939C122.423 34.3652 123.778 33.833 125.034 33.0803C125.045 33.0593 125.136 32.9823 125.136 32.9333C125.146 28.837 125.034 24.7267 125.763 20.8125C125.955 19.4856 127.146 18.1867 128.473 17.9486C130.167 17.539 131.981 17.7105 133.21 18.8799C133.941 19.5906 134.113 20.5184 134.239 21.4532C134.239 25.3954 133.941 29.2886 134.011 33.2624C134.032 33.9066 134.19 34.5753 134.764 34.9289C135.52 35.2755 136.343 34.8659 137.068 34.6698C138.017 34.2287 139.056 33.9556 139.872 33.2624C139.263 29.5757 138.885 25.3674 139.872 21.7473C140.569 18.2952 143.209 14.9656 146.447 13.3551C149.003 11.9827 152.564 11.8952 155.298 13.005C156.618 13.4742 157.84 14.1989 159.016 15.0812C159.121 15.1162 159.226 15.1162 159.31 15.0812C164.159 12.746 170.244 10.2252 175.79 12.746C180.205 14.7626 183.328 19.2895 183.394 24.1385C183.415 25.3954 183.223 26.5158 183.072 27.7026Z" fill="#F9F9F9"/>
<path d="M133.299 14.8816C131.643 15.8759 129.129 16.0474 127.424 15.0811C125.796 14.1989 124.564 12.5359 124.627 10.6698C124.564 8.76517 125.831 7.10215 127.424 6.22688C129.304 5.26408 132.007 5.22907 133.709 6.612C135.4 7.81288 136.226 9.91003 135.645 11.9582C135.288 13.1485 134.388 14.1989 133.299 14.8816Z" fill="#F9F9F9"/>
<path d="M35.5147 11.5141C34.1423 12.4559 32.1887 12.4314 30.8373 11.4896C29.7379 10.6704 28.7436 9.459 27.4517 8.96535C24.6613 7.59993 21.2408 8.61874 18.4819 9.38548C16.2307 10.0542 14.0705 11.2586 12.3375 13.0056C11.8824 13.5693 11.4762 14.175 11.7038 14.9207C11.8824 15.6664 12.6876 16.0481 13.2828 16.3982C14.3856 17.0319 15.597 17.438 16.7874 17.9281C19.9104 19.136 23.1244 20.2634 26.2508 21.4783C28.7716 22.7001 31.4885 23.6944 33.3616 26.0682C34.8775 28.0953 35.5147 30.6826 34.9896 33.347C34.5029 38.0769 30.5222 42.1872 26.4749 44.4734C23.541 46.3185 20.1835 47.1623 16.6158 47.5194C13.2303 47.6524 9.86924 47.2393 6.88981 46.1539C4.55109 45.2402 2.15284 43.3741 0.983475 41.0318C-0.0423444 38.9872 -0.500988 36.0953 0.783912 34.0192C2.0303 31.7154 4.55108 30.6476 7.05787 30.9242C8.34627 31.1273 9.66268 31.8765 10.1598 33.1439C10.853 34.3623 10.1038 36.0953 10.8075 37.2822C12.0504 39.6034 14.8723 39.4564 17.204 39.3128C20.5861 38.7211 24.0066 37.0616 25.7922 33.8336C26.2053 33.0564 26.4609 31.9325 25.8692 31.1273C24.6753 29.7198 22.9353 29.3837 21.4053 28.6695C17.5226 27.3356 13.6679 25.8546 9.80272 24.4857C6.32264 23.2148 1.76072 20.8621 1.30558 16.6082C0.605357 12.0953 3.40973 8.29314 7.05787 5.96141C11.7388 2.88745 16.9099 0.968857 22.5432 0.209118C27.3642 -0.375565 32.4373 0.153103 36.0679 3.23406C37.7099 4.71152 38.3541 6.92071 37.6539 9.03537C37.3073 10.0367 36.4565 10.94 35.5147 11.5141Z" fill="#F9F9F9"/>
</svg>
