<svg version="1.1" id="Capa_1" xmlns="http://www.w3.org/2000/svg" xmlns:xlink="http://www.w3.org/1999/xlink" x="0px" y="0px" viewBox="0 0 512 512" style="enable-background:new 0 0 512 512;" xml:space="preserve">
<g>
	<g>
		<path style="fill:none;stroke:#000000;stroke-width:15;stroke-linecap:round;stroke-linejoin:round;stroke-miterlimit:10;" d="&#10;&#9;&#9;&#9;M458.39,177.285c2.018,5.399,3.122,11.244,3.122,17.347v36.599c0,6.68-0.899,13.15-2.582,19.296"/>
		<path style="fill:none;stroke:#000000;stroke-width:15;stroke-linecap:round;stroke-linejoin:round;stroke-miterlimit:10;" d="&#10;&#9;&#9;&#9;M305.182,250.931c-1.755-6.266-2.694-12.874-2.694-19.7v-36.599c0-18.481,10.12-34.598,25.12-43.113&#10;&#9;&#9;&#9;c10.893-6.183,24.158-6.542,35.636-1.526l9.048,3.954c6.189,2.705,13.226,2.705,19.416,0l9.015-3.94&#10;&#9;&#9;&#9;c10.758-4.702,23.023-4.598,33.497,0.398"/>
		<g>
			<path style="fill:none;stroke:#000000;stroke-width:15;stroke-linecap:round;stroke-linejoin:round;stroke-miterlimit:10;" d="&#10;&#9;&#9;&#9;&#9;M380.073,153.65c0,0,5.383-12.412,5.71-26.281"/>
		</g>
		<path style="fill:none;stroke:#000000;stroke-width:15;stroke-linecap:round;stroke-linejoin:round;stroke-miterlimit:10;" d="&#10;&#9;&#9;&#9;M187.251,120.121c10.278-8.381,23.401-13.407,37.697-13.407c32.967,0,59.693,26.725,59.693,59.693c0,1.283-0.04,2.557-0.12,3.821"/>
		<path style="fill:none;stroke:#000000;stroke-width:15;stroke-linecap:round;stroke-linejoin:round;stroke-miterlimit:10;" d="&#10;&#9;&#9;&#9;M68.817,170.235c-0.326-1.834-0.455-3.741-0.363-5.703c0.583-12.489,10.315-22.919,22.741-24.306&#10;&#9;&#9;&#9;c3.625-0.405,7.116-0.046,10.341,0.926c1.007,0.304,1.979-0.544,1.856-1.588c-0.091-0.772-0.138-1.557-0.134-2.354&#10;&#9;&#9;&#9;c0.069-13.997,8.661-20.573,18.702-20.477c1.301,0.013,2.443-0.939,2.665-2.222c2.02-11.651,12.172-20.512,24.4-20.512&#10;&#9;&#9;&#9;c19.773,0,24.542,16.343,24.766,23.971c0.018,0.621,0.556,1.102,1.171,1.013c0.961-0.139,1.943-0.212,2.943-0.212&#10;&#9;&#9;&#9;c11.24,0,20.351,9.112,20.351,20.351c0,0.174-0.002,0.346-0.007,0.519c-0.02,0.74,0.571,1.348,1.311,1.348h0.014&#10;&#9;&#9;&#9;c13.155,0,23.915,10.254,24.724,23.205c0.099,1.592,0.047,3.154-0.144,4.673"/>
		<path style="fill:none;stroke:#000000;stroke-width:15;stroke-linecap:round;stroke-linejoin:round;stroke-miterlimit:10;" d="&#10;&#9;&#9;&#9;M50.488,250.333v-67.912c0-5.94,4.815-10.755,10.755-10.755h230.491c5.94,0,10.755,4.815,10.755,10.755v67.69"/>
		<path style="fill:none;stroke:#000000;stroke-width:15;stroke-linecap:round;stroke-linejoin:round;stroke-miterlimit:10;" d="&#10;&#9;&#9;&#9;M104,418H46c-16.569,0-30-13.431-30-30V282h480v106c0,16.569-13.431,30-30,30H140.333"/>
		<path style="fill:none;stroke:#000000;stroke-width:15;stroke-linecap:round;stroke-linejoin:round;stroke-miterlimit:10;" d="&#10;&#9;&#9;&#9;M497.417,282H14.583c-3.912,0-7.083-3.171-7.083-7.083v-15.833c0-3.912,3.171-7.083,7.083-7.083h482.833&#10;&#9;&#9;&#9;c3.912,0,7.083,3.171,7.083,7.083v15.833C504.5,278.829,501.329,282,497.417,282z"/>
		<path style="fill:none;stroke:#000000;stroke-width:15;stroke-linecap:round;stroke-linejoin:round;stroke-miterlimit:10;" d="&#10;&#9;&#9;&#9;M263.365,369.73h-14.73c-6.426,0-11.635-5.209-11.635-11.635v-20.73c0-6.426,5.209-11.635,11.635-11.635h14.73&#10;&#9;&#9;&#9;c6.426,0,11.635,5.209,11.635,11.635v20.73C275,364.521,269.791,369.73,263.365,369.73z"/>
	</g>
</g>
<g>
</g>
<g>
</g>
<g>
</g>
<g>
</g>
<g>
</g>
<g>
</g>
<g>
</g>
<g>
</g>
<g>
</g>
<g>
</g>
<g>
</g>
<g>
</g>
<g>
</g>
<g>
</g>
<g>
</g>
</svg>