<svg id="Layer_1" enable-background="new 0 0 510 510" height="512" viewBox="0 0 510 510" width="512" xmlns="http://www.w3.org/2000/svg"><g><path d="m510 45h-510v300h30v60h30v60h390v-60h30v-60h30zm-30 88.49c-29.344-5.98-52.511-29.146-58.491-58.49h58.491zm-88.924 181.51h-272.152c-6.597-45.916-43.008-82.327-88.924-88.924v-62.152c45.915-6.597 82.327-43.008 88.924-88.924h272.152c6.597 45.916 43.008 82.327 88.924 88.924v62.152c-45.916 6.597-82.327 43.008-88.924 88.924zm-361.076 0v-58.49c29.344 5.979 52.511 29.147 58.491 58.49zm58.491-240c-5.98 29.344-29.147 52.511-58.491 58.49v-58.49zm331.509 360h-330v-30h330zm30-60h-390v-30h390zm-28.491-60c5.98-29.344 29.147-52.511 58.491-58.49v58.49z"/><path d="m255 105c-49.626 0-90 40.374-90 90s40.374 90 90 90 90-40.374 90-90-40.374-90-90-90zm0 150c-33.084 0-60-26.916-60-60s26.916-60 60-60 60 26.916 60 60-26.916 60-60 60z"/></g></svg>