<svg height="512" viewBox="0 0 64 64" width="512" xmlns="http://www.w3.org/2000/svg"><g id="Money"><path d="m24.23975 22.25635a2.72155 2.72155 0 0 0 2.89209-2.502 2.72155 2.72155 0 0 0 -2.89209-2.502 2.722 2.722 0 0 0 -2.89258 2.502 2.722 2.722 0 0 0 2.89258 2.502zm0-3.00391c.54443 0 .89209.29736.89209.502s-.34766.502-.89209.502c-.54493 0-.89258-.29737-.89258-.502s.34765-.502.89258-.502z"/><path d="m63.49414 27.92432c-7.86029-4.46607-32.68658-18.57178-40.11768-22.794a.998.998 0 0 0 -1.02392.02149l-21.88233 13.67632a1.02427 1.02427 0 0 0 -.47021.84814v15.52978a1.00058 1.00058 0 0 0 .50586.86963l40.11768 22.794a1.00081 1.00081 0 0 0 1.02392-.02149l21.88233-13.67631a1.00077 1.00077 0 0 0 .47021-.84815v-15.52973a1.01429 1.01429 0 0 0 -.50586-.86968zm-18.06232-7.962 15.61591 8.87258-19.95447 12.47174-15.60834-8.86853 1.585-.99133 10.7265 6.09277a1.00054 1.00054 0 0 0 1.13965-.106 3.28287 3.28287 0 0 1 2.09423-.6538 3.41561 3.41561 0 0 1 2.0117.59425.999.999 0 0 0 1.13867.05371l9.49024-5.93994a1.00041 1.00041 0 0 0 .14648-1.58349 1.34 1.34 0 0 1 -.47754-.96436 1.29046 1.29046 0 0 1 .417-.89306.99984.99984 0 0 0 -.21289-1.57667l-9.7035-5.51257zm6.25718 10.40633-8.03812 5.03125a5.67539 5.67539 0 0 0 -2.62061-.62011 5.521 5.521 0 0 0 -2.79492.709l-9.23816-5.24744 9.54865-5.97216 3.36871-2.10511 9.70117 5.51123a3.07205 3.07205 0 0 0 -.27588 1.26465 3.12624 3.12624 0 0 0 .34916 1.42869zm-34.09671 13.11457-15.59229-8.85922v-2.87626l15.59229 8.85571zm0-5.17975-15.59229-8.85572v-2.87909l15.59229 8.86434zm0-5.17054-15.59229-8.86438v-2.87371l15.59229 8.85937zm-14.64-13.4978 19.95445-12.47107 15.60785 8.868-1.58905.9939-10.75171-6.10555a1.0016 1.0016 0 0 0 -1.11865.08887 3.90317 3.90317 0 0 1 -4.09082.05664.99894.99894 0 0 0 -1.12549-.043l-9.51026 5.96a1.0003 1.0003 0 0 0 -.146 1.583 1.20093 1.20093 0 0 1 .05224 1.87549.99987.99987 0 0 0 .22168 1.56836l9.69825 5.50549-1.58692.99255zm9.35871-1.53406 8.064-5.05419a6.03556 6.03556 0 0 0 5.3457-.084l9.27686 5.26812-12.92188 8.0747-9.69531-5.50341a3.08666 3.08666 0 0 0 .27979-1.27246 3.12628 3.12628 0 0 0 -.34916-1.42876zm10.2222 28.18946-2.94091-1.67139v-13.22851c1.78546 1.0144 1.1369.64587 2.94091 1.671zm-1.98895-16.65985c4.94128-3.09064 15.01276-9.39 19.94641-12.47583l2.96485 1.68457c-.01392.00866-19.93262 12.46716-19.94654 12.47589zm41.45575 14.13885-20.90674 13.06641-16.56006-9.40906v-2.87695l16.09326 9.13952a1 1 0 0 0 1.02344-.02145l20.3501-12.7142zm0-5.174-20.9043 13.06023-16.5625-9.40582v-2.87952l16.0928 9.14858a1.00016 1.00016 0 0 0 1.02441-.021l20.34959-12.72291zm0-5.17975-20.9043 13.07006-16.5625-9.41559v-2.87225l16.09034 9.14233a.99946.99946 0 0 0 .24725.09863c.01849.00464.03754.00361.05621.00721a1.00017 1.00017 0 0 0 .19068.02453l.01251-.00171a1.007 1.007 0 0 0 .139-.01934.986.986 0 0 0 .12817-.01978 1.00115 1.00115 0 0 0 .25012-.111l20.35252-12.72066z"/><path d="m39.76221 26.21436a2.72154 2.72154 0 0 0 -2.89209 2.502 2.92271 2.92271 0 0 0 5.78467 0 2.722 2.722 0 0 0 -2.89258-2.502zm0 3.00439c-.54444 0-.89209-.29736-.89209-.50244 0-.20459.34765-.502.89209-.502.54492 0 .89258.29736.89258.502 0 .20508-.34766.50244-.89258.50244z"/></g></svg>