<svg width="204" height="241" viewBox="0 0 204 241" fill="none" xmlns="http://www.w3.org/2000/svg">
<path d="M201.288 49.0574L154.924 2.71125C154.062 1.85075 153.039 1.16841 151.914 0.7032C150.788 0.237995 149.582 -0.0009546 148.364 2.86603e-06H55.6364C50.7178 2.86603e-06 46.0007 1.95316 42.5228 5.42979C39.0448 8.90643 37.0909 13.6218 37.0909 18.5385V37.0769H18.5455C13.6269 37.0769 8.90978 39.0301 5.43184 42.5067C1.95389 45.9834 0 50.6987 0 55.6154V222.462C0 227.378 1.95389 232.094 5.43184 235.57C8.90978 239.047 13.6269 241 18.5455 241H148.364C153.282 241 157.999 239.047 161.477 235.57C164.955 232.094 166.909 227.378 166.909 222.462V203.923H185.455C190.373 203.923 195.09 201.97 198.568 198.493C202.046 195.017 204 190.301 204 185.385V55.6154C204.001 54.3978 203.762 53.1919 203.297 52.0667C202.831 50.9414 202.149 49.9189 201.288 49.0574ZM148.364 222.462H18.5455V55.6154H107.436L148.364 96.5275V194.468C148.364 194.538 148.364 194.596 148.364 194.654C148.364 194.712 148.364 194.77 148.364 194.839V222.462ZM185.455 185.385H166.909V92.6923C166.91 91.4747 166.671 90.2688 166.206 89.1436C165.74 88.0183 165.058 86.9958 164.197 86.1343L117.833 39.7882C116.971 38.9277 115.948 38.2453 114.823 37.7801C113.697 37.3149 112.491 37.076 111.273 37.0769H55.6364V18.5385H144.527L185.455 59.4505V185.385ZM120.545 148.308C120.545 150.766 119.569 153.124 117.83 154.862C116.091 156.6 113.732 157.577 111.273 157.577H55.6364C53.1771 157.577 50.8185 156.6 49.0796 154.862C47.3406 153.124 46.3636 150.766 46.3636 148.308C46.3636 145.849 47.3406 143.492 49.0796 141.753C50.8185 140.015 53.1771 139.038 55.6364 139.038H111.273C113.732 139.038 116.091 140.015 117.83 141.753C119.569 143.492 120.545 145.849 120.545 148.308ZM120.545 185.385C120.545 187.843 119.569 190.201 117.83 191.939C116.091 193.677 113.732 194.654 111.273 194.654H55.6364C53.1771 194.654 50.8185 193.677 49.0796 191.939C47.3406 190.201 46.3636 187.843 46.3636 185.385C46.3636 182.926 47.3406 180.569 49.0796 178.83C50.8185 177.092 53.1771 176.115 55.6364 176.115H111.273C113.732 176.115 116.091 177.092 117.83 178.83C119.569 180.569 120.545 182.926 120.545 185.385Z" fill="#FE337E"/>
</svg>
