<svg enable-background="new 0 0 512 512" viewBox="0 0 512 512" xmlns="http://www.w3.org/2000/svg"><g id="_x31_1_x2C__Summer_x2C__holidays_x2C__beach_umbrella_x2C__sunbed_x2C__vacations"><g><path d="m415.24 285.392-65.252 65.251h-35.821l38.897-139.367 24.487 6.599 19.765-26.339 3.854 32.703 68.11 18.354 35.924-47.875.501-1.859c21.934-81.39-26.186-164.998-107.565-186.928-81.397-21.932-165 26.19-186.928 107.567l-.501 1.859 7.004 59.443 68.11 18.354 19.764-26.338 3.854 32.703 24.311 6.552-40.35 144.571h-242.41c-27.57 0-50 22.43-50 50v30h54.96l-12.666 33.254c-6.881 18.077 2.179 38.286 20.253 45.16 18.12 6.911 38.291-2.209 45.168-20.244l22.157-58.17h160.256l22.158 58.174c6.88 18.039 27.061 27.146 45.158 20.243 18.089-6.879 27.142-27.088 20.261-45.166l-12.851-33.74c13.156-1.648 25.326-7.559 34.852-17.085l110-110-17.678-17.678c-21.497-21.495-56.288-21.492-77.782.002zm-95.077-152.89c12.557-42.204 47.139-114.145 72.771-107.26 16.428 4.427 27.014 55.27 9.039 129.306zm141.246 87.258-41.962-11.308-3.465-29.416 63.204 17.033zm27.219-41.859-67.355-18.151c8.69-35.759 15.075-85.765 4.497-120.746 47.493 27.929 73.463 83.388 62.858 138.897zm-130.996-157.26c-26.666 24.878-46.305 71.245-56.796 106.652l-67.343-18.148c18.713-53.286 69.014-88.222 124.139-88.504zm-79.678 149.68-41.962-11.308-3.465-29.416 63.204 17.032zm46.3-16.004 63.205 17.033-17.776 23.691-41.963-11.309zm-234.234 327.373c-2.953 7.742-11.602 11.636-19.361 8.677-7.761-2.952-11.622-11.623-8.681-19.354l15.377-40.37h32.109zm261.3 8.679c-7.729 2.951-16.394-.923-19.352-8.676l-19.445-51.051h32.109l15.376 40.367c2.976 7.821-1.007 16.44-8.688 19.36zm35.237-91.442c-7.555 7.555-17.6 11.716-28.284 11.716h-337.279v-10c0-16.542 13.458-30 30-30h307.279l71.109-71.108c6.61-6.611 15.399-10.252 24.748-10.252 17.839 0 26.405 12.419 28.284 13.787z"/><path d="m90.994 140.643c27.57 0 50-22.43 50-50s-22.43-50-50-50-50 22.43-50 50 22.43 50 50 50zm0-80c16.542 0 30 13.458 30 30s-13.458 30-30 30-30-13.458-30-30 13.458-30 30-30z"/><path d="m80.994.643h20v20h-20z"/><path d="m24.425 24.074h20.001v20.001h-20.001z" transform="matrix(.707 -.707 .707 .707 -14.011 34.323)"/><path d="m.994 80.643h20v20h-20z"/><path d="m24.425 137.211h20v20.001h-20z" transform="matrix(.707 -.707 .707 .707 -94.011 67.46)"/><path d="m80.994 160.643h20v20h-20z"/><path d="m137.562 137.212h20.001v20h-20.001z" transform="matrix(.707 -.707 .707 .707 -60.874 147.467)"/><path d="m160.994 80.643h20v20h-20z"/><path d="m137.562 24.074h20.001v20.001h-20.001z" transform="matrix(.707 -.707 .707 .707 19.126 114.322)"/></g></g><g id="Layer_1"/></svg>